<?xml version="1.0" encoding="UTF-8" standalone="no"?>
<!-- Created with Inkscape (http://www.inkscape.org/) -->

<svg
   xmlns:dc="http://purl.org/dc/elements/1.1/"
   xmlns:cc="http://creativecommons.org/ns#"
   xmlns:rdf="http://www.w3.org/1999/02/22-rdf-syntax-ns#"
   xmlns:svg="http://www.w3.org/2000/svg"
   xmlns="http://www.w3.org/2000/svg"
   xmlns:xlink="http://www.w3.org/1999/xlink"
   xmlns:sodipodi="http://sodipodi.sourceforge.net/DTD/sodipodi-0.dtd"
   xmlns:inkscape="http://www.inkscape.org/namespaces/inkscape"
   width="100%"
   height="100%"
   id="svg7406"
   version="1.1"
   inkscape:version="0.48.5 r10040"
   sodipodi:docname="SmallCar v4.svg"
   viewBox="0 0 1200 600">
  <title
     id="title4557">Animation of a mini car</title>
  <defs
     id="defs7408">
    <linearGradient
       id="linearGradient4451">
      <stop
         style="stop-color:#3a3a4c;stop-opacity:1;"
         offset="0"
         id="stop4453" />
      <stop
         id="stop4459"
         offset="0.05328856"
         style="stop-color:#0000ff;stop-opacity:1;" />
      <stop
         style="stop-color:#9f9ff6;stop-opacity:1;"
         offset="1"
         id="stop4455" />
    </linearGradient>
    <linearGradient
       inkscape:collect="always"
       id="linearGradient4406">
      <stop
         style="stop-color:#090f23;stop-opacity:1;"
         offset="0"
         id="stop4408" />
      <stop
         style="stop-color:#090f23;stop-opacity:0;"
         offset="1"
         id="stop4410" />
    </linearGradient>
    <linearGradient
       inkscape:collect="always"
       id="linearGradient4370">
      <stop
         style="stop-color:#efe5e5;stop-opacity:1;"
         offset="0"
         id="stop4372" />
      <stop
         style="stop-color:#efe5e5;stop-opacity:0;"
         offset="1"
         id="stop4374" />
    </linearGradient>
    <filter
       color-interpolation-filters="sRGB"
       id="e">
      <feGaussianBlur
         stdDeviation="1.50913"
         id="feGaussianBlur3905" />
    </filter>
    <radialGradient
       id="a"
       cx="304"
       cy="41.750999"
       r="73.486"
       gradientTransform="matrix(0.26572,1.473,1.2939,-0.20336,93.94,398.96)"
       gradientUnits="userSpaceOnUse">
      <stop
         stop-color="#fb8b00"
         offset="0"
         id="stop3926" />
      <stop
         stop-color="#fb8b00"
         stop-opacity="0"
         offset="1"
         id="stop3928" />
    </radialGradient>
    <linearGradient
       id="c"
       x1="65.026001"
       x2="71.389999"
       y1="900.19"
       y2="891.70001"
       gradientUnits="userSpaceOnUse">
      <stop
         offset="0"
         id="stop3916" />
      <stop
         stop-opacity="0"
         offset="1"
         id="stop3918" />
    </linearGradient>
    <filter
       color-interpolation-filters="sRGB"
       id="f">
      <feGaussianBlur
         stdDeviation="1.04515"
         id="feGaussianBlur3902" />
    </filter>
    <filter
       color-interpolation-filters="sRGB"
       id="h">
      <feGaussianBlur
         stdDeviation="18.39687"
         id="feGaussianBlur3899" />
    </filter>
    <filter
       color-interpolation-filters="sRGB"
       id="g"
       x="-0.13483"
       y="-0.15379"
       width="1.2697001"
       height="1.3076">
      <feGaussianBlur
         stdDeviation="2.89993"
         id="feGaussianBlur3908" />
    </filter>
    <radialGradient
       inkscape:collect="always"
       xlink:href="#a"
       id="radialGradient4166"
       gradientUnits="userSpaceOnUse"
       gradientTransform="matrix(0.26572,1.473,1.2939,-0.20336,93.94,398.96)"
       cx="304"
       cy="41.750999"
       r="73.486" />
    <linearGradient
       inkscape:collect="always"
       xlink:href="#c"
       id="linearGradient4168"
       gradientUnits="userSpaceOnUse"
       x1="65.026001"
       y1="900.19"
       x2="71.389999"
       y2="891.70001" />
    <filter
       inkscape:collect="always"
       id="filter4346"
       x="-0.20022857"
       width="1.4004571"
       y="-0.18442105"
       height="1.3688421"
       color-interpolation-filters="sRGB">
      <feGaussianBlur
         inkscape:collect="always"
         stdDeviation="4.9049868"
         id="feGaussianBlur4348" />
    </filter>
    <linearGradient
       inkscape:collect="always"
       xlink:href="#linearGradient4370"
       id="linearGradient4376"
       x1="579.52759"
       y1="523.9895"
       x2="601.36481"
       y2="354.33072"
       gradientUnits="userSpaceOnUse" />
    <filter
       inkscape:collect="always"
       id="filter4402"
       x="-0.048779577"
       width="1.0975592"
       y="-0.30219319"
       height="1.6043864"
       color-interpolation-filters="sRGB">
      <feGaussianBlur
         inkscape:collect="always"
         stdDeviation="8.9891245"
         id="feGaussianBlur4404" />
    </filter>
    <linearGradient
       inkscape:collect="always"
       xlink:href="#linearGradient4406"
       id="linearGradient4412"
       x1="586.24677"
       y1="310.23621"
       x2="582.08441"
       y2="403.46457"
       gradientUnits="userSpaceOnUse" />
    <linearGradient
       inkscape:collect="always"
       xlink:href="#linearGradient4451"
       id="linearGradient4457"
       x1="-738.80597"
       y1="190.21211"
       x2="1978.8597"
       y2="185.46095"
       gradientUnits="userSpaceOnUse" />
  </defs>
  <sodipodi:namedview
     id="base"
     pagecolor="#ffffff"
     bordercolor="#666666"
     borderopacity="1.0"
     inkscape:pageopacity="0.0"
     inkscape:pageshadow="2"
     inkscape:zoom="0.42094951"
     inkscape:cx="543.20533"
     inkscape:cy="119.18738"
     inkscape:current-layer="layer2"
     inkscape:document-units="px"
     showgrid="false"
     gridtolerance="1"
     objecttolerance="17"
     guidetolerance="1"
     inkscape:window-width="1366"
     inkscape:window-height="705"
     inkscape:window-x="-8"
     inkscape:window-y="-8"
     inkscape:window-maximized="1">
    <inkscape:grid
       type="xygrid"
       id="grid7937"
       empspacing="4"
       visible="true"
       enabled="true"
       snapvisiblegridlinesonly="true" />
  </sodipodi:namedview>
  <metadata
     id="metadata7411">
    <rdf:RDF>
      <cc:Work
         rdf:about="">
        <dc:format>image/svg+xml</dc:format>
        <dc:type
           rdf:resource="http://purl.org/dc/dcmitype/StillImage" />
        <dc:title>Animation of a mini car</dc:title>
        <dc:creator>
          <cc:Agent>
            <dc:title>Aukipa</dc:title>
          </cc:Agent>
        </dc:creator>
        <dc:subject>
          <rdf:Bag>
            <rdf:li>Animation</rdf:li>
            <rdf:li>SMIL</rdf:li>
            <rdf:li>SVG</rdf:li>
            <rdf:li>Car</rdf:li>
            <rdf:li>Road</rdf:li>
            <rdf:li>Driving</rdf:li>
            <rdf:li>Mini</rdf:li>
            <rdf:li>Wheel</rdf:li>
          </rdf:Bag>
        </dc:subject>
        <dc:publisher>
          <cc:Agent>
            <dc:title>www.portaloha.com/creative-dept</dc:title>
          </cc:Agent>
        </dc:publisher>
        <dc:description>Continuous Animation of a mini car driving down the road. Uses animateTransform translate and rotate.</dc:description>
      </cc:Work>
    </rdf:RDF>
  </metadata>
  <g
     id="layer1"
     inkscape:label="Background"
     inkscape:groupmode="layer"
     style="display:inline">
    <path
       style="color:#000000;fill:#d38d5f;fill-opacity:1;fill-rule:nonzero;stroke:none;stroke-width:2;marker:none;visibility:visible;display:inline;overflow:visible;enable-background:accumulate"
       d="M -84.572678,352.93948 1299.2462,-15.275704 c 0.3066,-0.08159 5.3143,143.868784 5.3238,145.525604 l 2.3756,414.49659 c 0.01,1.65682 -0.2554,2.99069 -0.5727,2.99069 l -1390.945578,0 c -0.317267,0 -0.581522,-1.33386 -0.572685,-2.99069 l 2.375582,-445.379158 c 0.0088,-1.656816 -2.109496,253.653728 -1.802897,253.572148 z"
       id="rect4447"
       inkscape:connector-curvature="0"
       sodipodi:nodetypes="sssssssss" />
    <path
       style="color:#000000;fill:#deaa87;fill-opacity:1;fill-rule:nonzero;stroke:none;stroke-width:2;marker:none;visibility:visible;display:inline;overflow:visible;enable-background:accumulate"
       d="m -80.19709,-34.28035 1388.57009,0 c 0.3173,0 0.5727,1.333847 0.5727,2.990688 l 0,428.750102 c 0,1.65684 -0.272,-385.110549 -0.5727,-385.00931 C 880.25157,2.3357555 336.80027,561.23176 -80.769775,475.46044 l 0,-506.750102 c 0,-1.656841 0.255417,-2.990688 0.572685,-2.990688 z"
       id="rect4449"
       inkscape:connector-curvature="0"
       sodipodi:nodetypes="ssssccss" />
  </g>
  <g
     inkscape:groupmode="layer"
     id="layer2"
     inkscape:label="Street"
     style="display:inline">
    <path
       style="color:#000000;fill:#4d4d4d;fill-opacity:1;fill-rule:nonzero;stroke:#000000;stroke-width:0.5;stroke-linecap:butt;stroke-linejoin:round;stroke-miterlimit:4;stroke-opacity:1;stroke-dasharray:none;stroke-dashoffset:4.09999996;marker:none;visibility:visible;display:inline;overflow:visible;enable-background:accumulate"
       d="m -80.769783,538.35697 3.765128,106.77908 C 398.24984,863.5914 846.5138,686.18548 1304.5607,652.2628 c -1.2643,-60.54182 17.6069,-57.88453 6.7604,-117.53957 -290.8951,-27.97366 -975.57221,-29.62441 -1392.090883,3.63374 z"
       id="path4104"
       inkscape:connector-curvature="0"
       sodipodi:nodetypes="ccccc" />
    <g
       id="MasterTimeLine and RoadStrip">
      <path
         id="rect4124"
         d="m 1252.5043,557.2395 70.1221,0 c 0.3173,0 0.5727,1.33385 0.5727,2.99069 l 0,8.27211 c 0,1.65685 -0.2554,2.99069 -0.5727,2.99069 l -70.1221,0 c -0.3172,0 -0.5727,-1.33384 -0.5727,-2.99069 l 0,-8.27211 c 0,-1.65684 0.2555,-2.99069 0.5727,-2.99069 z"
         style="color:#000000;fill:#cccccc;fill-opacity:1;fill-rule:nonzero;stroke:none;stroke-width:2;marker:none;visibility:visible;display:inline;overflow:visible;enable-background:accumulate"
         inkscape:connector-curvature="0">
        <animateTransform
           repeatCount="2"
           type="translate"
           dur="2000ms"
           begin="animateTimeLine.begin"
           attributeName="transform"
           id="animateTransform4126"
           values="0 0;-1400 0" />
      </path>
      <path
         inkscape:connector-curvature="0"
         id="MasterTimeLine"
         d="m 19.004655,-41.407095 389.595425,2.375582"
         style="color:#000000;fill:#999999;fill-opacity:1;fill-rule:nonzero;stroke:#000000;stroke-width:2;stroke-linecap:butt;stroke-linejoin:round;stroke-miterlimit:4;stroke-opacity:1;stroke-dasharray:none;stroke-dashoffset:4.09999996;marker:none;visibility:visible;display:inline;overflow:visible;enable-background:accumulate">
        <animateTransform
           values="0 0;0 0"
           id="animateTimeLine"
           attributeName="transform"
           begin="0ms;animateTimeLine.end"
           dur="1000ms"
           type="translate"
           repeatCount="4" />
      </path>
    </g>
  </g>
  <g
     inkscape:groupmode="layer"
     id="layer4"
     inkscape:label="Car">
    <g
       id="g4059"
       transform="translate(0,-18)">
      <g
         id="TheMiniCar">
        <animateTransform
           values="0 0;1 0;0 1;0 0"
           id="animateTransform4053"
           attributeName="transform"
           additive="sum"
           begin="0ms"
           dur="500ms"
           type="translate"
           repeatCount="indefinite"
           fillH="freeze" />
        <path
           style="color:#000000;fill:#000000;fill-opacity:1;fill-rule:nonzero;stroke:#000000;stroke-width:0.5;stroke-linecap:butt;stroke-linejoin:round;stroke-miterlimit:4;stroke-opacity:1;stroke-dasharray:none;stroke-dashoffset:4.09999996;marker:none;visibility:visible;display:inline;overflow:visible;enable-background:accumulate"
           d="m 289.76378,465.6168 0,20.15748 634.12073,26.87664 -16.7979,-101.6273 -586.24672,-41.15485 z"
           id="path4020"
           inkscape:connector-curvature="0" />
        <path
           style="color:#000000;fill:#09132d;fill-opacity:1;stroke:#000000;stroke-width:0.5;stroke-linecap:butt;stroke-linejoin:round;stroke-miterlimit:4;stroke-opacity:1;stroke-dasharray:none;stroke-dashoffset:4.09999996;marker:none;visibility:visible;display:inline;overflow:visible;enable-background:accumulate"
           d="m 463.62205,513.49081 c -1.68769,-143.2182 -162.28403,-148.11239 -174.69817,-17.63779 -0.62341,4.05714 -6.52376,3.06517 -6.71101,-0.41052 -3.75291,-69.66063 8.45272,-99.08432 20.89157,-119.86946 17.00206,-28.41021 6.13795,-50.11177 13.53598,-79.61503 l 49.55381,-85.6693 -27.71654,-12.59843 c 103.02712,-20.31388 229.7751,-19.5126 331.12243,7.10927 l -11.61443,1.22999 c 46.63649,27.91918 93.27297,73.6331 139.90946,112.65583 3.49839,5.64092 14.17535,10.5157 21.84238,12.12828 l 42.30044,8.26721 c 12.29975,3.56836 41.61591,21.93386 59.74681,54.30496 -5.00746,17.70453 -2.11053,35.47123 6.29921,41.99476 l 5.87926,84.82939 c -6.43919,3.58407 -12.87839,9.45363 -19.31758,-4.19947 0.65756,-80.15565 -36.24709,-102.91496 -72.94196,-106.1057 -44.50396,-3.86976 -87.0937,15.49757 -95.87694,109.46528 z"
           id="path3214"
           inkscape:connector-curvature="0"
           sodipodi:nodetypes="ccssccccccccccccscc" />
        <g
           id="RearTailLight"
           inkscape:label="#g3990"
           transform="translate(0,0.83989501)">
          <path
             sodipodi:nodetypes="ccccc"
             inkscape:connector-curvature="0"
             id="path3986"
             d="m 322.51968,301.83727 c -8.49632,13.93296 -7.06646,21.54926 -3.35958,27.71654 8.89718,2.11171 18.54242,-1.01301 28.55644,-6.71916 3.29353,-3.58607 4.75207,-7.63088 -0.8399,-13.43832 -9.47568,-7.94646 -17.09671,-8.4743 -24.35696,-7.55906 z"
             style="color:#000000;fill:#b40207;fill-opacity:1;stroke:#000000;stroke-width:0.5;stroke-linecap:butt;stroke-linejoin:round;stroke-miterlimit:4;stroke-opacity:1;stroke-dasharray:none;stroke-dashoffset:4.09999996;marker:none;visibility:visible;display:inline;overflow:visible;enable-background:accumulate" />
          <path
             sodipodi:nodetypes="ccc"
             inkscape:connector-curvature="0"
             id="path3988"
             d="m 322.51969,303.09711 c -8.75849,11.52746 -7.19744,18.36422 -3.77953,24.35696 12.63108,-8.11899 8.73395,-16.23797 3.77953,-24.35696 z"
             style="color:#000000;fill:#fa0105;fill-opacity:1;stroke:#000000;stroke-width:0.5;stroke-linecap:butt;stroke-linejoin:round;stroke-miterlimit:4;stroke-opacity:1;stroke-dasharray:none;stroke-dashoffset:4.09999996;marker:none;visibility:visible;display:inline;overflow:visible;enable-background:accumulate" />
        </g>
        <path
           style="color:#000000;fill:#09132d;fill-opacity:1;stroke:#000000;stroke-width:0.5;stroke-linecap:butt;stroke-linejoin:round;stroke-miterlimit:4;stroke-opacity:1;stroke-dasharray:none;stroke-dashoffset:4.09999996;marker:none;visibility:visible;display:inline;overflow:visible;enable-background:accumulate"
           d="m 748.34646,295.11811 c 11.41323,71.92487 12.89803,139.87837 -20.15748,194.01575 C 664.63692,480.74061 601.08487,477.24958 537.53281,456.37795 491.47327,405.15716 448.66269,354.17274 440.10499,290.07874 l 13.43831,-57.11286 c 6.6022,-16.07496 19.79895,-26.39528 41.99476,-26.87664 41.43482,-5.62226 82.86964,-1.88678 124.30446,5.87926 19.87752,2.67579 39.75503,14.68569 59.63255,26.03675 z"
           id="path3996"
           inkscape:connector-curvature="0"
           sodipodi:nodetypes="ccccccccc" />
        <path
           style="color:#000000;fill:url(#linearGradient4376);fill-opacity:1;fill-rule:nonzero;stroke:none;stroke-width:2;marker:none;visibility:visible;display:inline;overflow:visible;filter:url(#filter4402);enable-background:accumulate"
           d="m 333.43833,323.67454 420.78739,46.19423 c 1.60876,16.70319 1.75021,17.45171 -3.35958,25.19685 l -437.5853,-49.55381 c -3.93486,-13.71828 28.06082,-8.11898 20.15749,-21.83727 z"
           id="path4352"
           inkscape:connector-curvature="0"
           transform="translate(0,18)"
           sodipodi:nodetypes="ccccc" />
        <use
           x="0"
           y="0"
           xlink:href="#RearTailLight"
           id="use3994"
           transform="translate(-2.9396325,33.175853)"
           width="1200"
           height="600" />
        <path
           style="color:#000000;fill:#00ffff;stroke:#000000;stroke-width:0.5;stroke-linecap:butt;stroke-linejoin:round;stroke-miterlimit:4;stroke-opacity:1;stroke-dasharray:none;stroke-dashoffset:4.09999996;marker:none;visibility:visible;display:inline;overflow:visible;enable-background:accumulate"
           d="m 734.06824,324.51444 c 9.31155,-11.7343 -0.74778,-34.12502 -5.45931,-42.4147 -23.65704,-21.49874 -62.01226,-47.00187 -94.4882,-61.73229 -51.51356,-13.98611 -101.34733,-16.3399 -152.02099,-12.59842 -31.57863,4.99868 -31.75526,38.78253 -37.79528,67.1916 18.70861,2.12727 48.47841,1.4341 55.43307,20.99738 z"
           id="path3998"
           inkscape:connector-curvature="0"
           sodipodi:nodetypes="ccccccc" />
        <path
           style="color:#000000;fill:#1a1a1a;stroke:#000000;stroke-width:0.5;stroke-linecap:butt;stroke-linejoin:round;stroke-miterlimit:4;stroke-opacity:1;stroke-dasharray:none;stroke-dashoffset:4.09999996;marker:none;visibility:visible;display:inline;overflow:visible;enable-background:accumulate"
           d="m 442.62467,282.51969 c -4.7254,4.13473 -5.50594,20.66469 -1.25984,24.35695 l 9.65879,8.39895 c 10.73066,2.45168 24.75174,4.15911 38.63517,-3.35958 13.13887,-7.11547 11.65526,-20.74972 0,-26.87664 -12.87055,-6.76578 -25.19685,-8.60548 -40.31496,-8.39895 z"
           id="path4000"
           inkscape:connector-curvature="0"
           sodipodi:nodetypes="sscsscs" />
        <path
           style="color:#000000;fill:#fe120f;fill-opacity:1;stroke:#000000;stroke-width:0.5;stroke-linecap:butt;stroke-linejoin:round;stroke-miterlimit:4;stroke-opacity:1;stroke-dasharray:none;stroke-dashoffset:4.09999996;marker:none;visibility:visible;display:inline;overflow:visible;enable-background:accumulate"
           d="m 728.18898,488.29396 -8.39895,11.75853 c -61.82905,-2.02366 -128.48007,-7.99965 -185.6168,-16.7979 -11.33296,-3.63954 -24.75956,-17.35783 -32.75591,-26.03674 L 386.35171,310.23622 c -7.27909,-6.96997 -14.55818,-9.58641 -21.83727,-13.43832 18.87031,-39.25059 48.20099,-92.17821 70.13123,-101.20735 73.01055,-9.22266 147.26171,-2.41514 208.29396,12.17848 l 146.73051,113.97973 -9.40767,1.43378 -51.76056,-40.78223 c -38.1589,-33.04873 -61.35398,-45.49747 -95.03476,-62.87275 -56.69437,-9.80169 -107.34972,-13.45193 -158.08657,-11.33858 -9.82323,4.45498 -17.59801,12.21826 -23.93701,28.55642 -4.70411,23.79703 -14.69821,50.11374 -7.979,73.49082 11.65351,52.46895 42.70244,86.35287 74.75065,132.70341 10.97391,13.00167 18.77825,23.51991 31.79964,26.56637 42.39069,9.91766 112.50688,13.80164 178.17412,18.78796 z"
           id="path4002"
           inkscape:connector-curvature="0"
           sodipodi:nodetypes="ccccccccccccccccsc" />
        <path
           sodipodi:type="arc"
           style="color:#000000;fill:#404352;fill-opacity:1;stroke:#000000;stroke-width:0.5;stroke-linecap:butt;stroke-linejoin:round;stroke-miterlimit:4;stroke-opacity:1;stroke-dasharray:none;stroke-dashoffset:4.09999996;marker:none;visibility:visible;display:inline;overflow:visible;enable-background:accumulate"
           id="path3984"
           sodipodi:cx="387.61154"
           sodipodi:cy="364.40945"
           sodipodi:rx="21.417322"
           sodipodi:ry="19.737534"
           d="m 409.02886,364.40945 a 21.417322,19.737534 0 1 1 -42.83464,0 21.417322,19.737534 0 1 1 42.83464,0 z"
           transform="translate(-4,-10)" />
        <path
           style="opacity:0.52631579;color:#000000;fill:#ffffff;fill-opacity:1;fill-rule:nonzero;stroke:#000000;stroke-width:0.5;stroke-linecap:butt;stroke-linejoin:round;stroke-miterlimit:4;stroke-opacity:1;stroke-dasharray:none;stroke-dashoffset:4.09999996;marker:none;visibility:visible;display:inline;overflow:visible;enable-background:accumulate"
           d="m 865.61371,339.39891 c -12.67562,-4.61895 -18.24658,7.46705 -6.40111,22.9108 15.67575,16.5294 34.57797,28.26499 52.49344,33.59581 8.86905,2.08476 9.44411,-4.35192 8.39895,-7.55907 -9.0999,-21.81911 -20.6849,-46.48939 -54.49128,-48.94754 z"
           id="path4004"
           inkscape:connector-curvature="0"
           sodipodi:nodetypes="ccccc" />
        <path
           style="color:#000000;fill:#1a1a1a;fill-opacity:1;fill-rule:nonzero;stroke:#000000;stroke-width:0.5;stroke-linecap:butt;stroke-linejoin:round;stroke-miterlimit:4;stroke-opacity:1;stroke-dasharray:none;stroke-dashoffset:4.09999996;marker:none;visibility:visible;display:inline;overflow:visible;enable-background:accumulate"
           d="m 750.86614,300.15748 5.03937,27.71654 27.71654,0.83989 z"
           id="path4006"
           inkscape:connector-curvature="0" />
        <path
           style="color:#000000;fill:#09132d;fill-opacity:1;fill-rule:nonzero;stroke:#000000;stroke-width:0.5;stroke-linecap:butt;stroke-linejoin:round;stroke-miterlimit:4;stroke-opacity:1;stroke-dasharray:none;stroke-dashoffset:4.09999996;marker:none;visibility:visible;display:inline;overflow:visible;enable-background:accumulate"
           d="m 790.60469,321.47291 62.94992,12.16611 c 10.6017,6.0888 2.32615,4.40521 -1.0066,7.39747 l -60.94696,-9.80289 z"
           id="path4008"
           inkscape:connector-curvature="0"
           sodipodi:nodetypes="ccccc" />
        <path
           style="color:#000000;fill:#00ffff;fill-opacity:1;fill-rule:nonzero;stroke:#000000;stroke-width:0.5;stroke-linecap:butt;stroke-linejoin:round;stroke-miterlimit:4;stroke-opacity:1;stroke-dasharray:none;stroke-dashoffset:4.09999996;marker:none;visibility:visible;display:inline;overflow:visible;enable-background:accumulate"
           d="m 358.46123,206.97571 c 3.34995,0.64227 8.61037,-2.85789 12.35242,4.57284 -8.35802,24.55121 -21.02459,53.13003 -34.85564,76.8504 -6.76185,4.14487 -9.41903,0.0804 -13.01838,-2.09973 11.39748,-41.59021 25.99768,-61.47715 35.5216,-79.32351 z"
           id="path4010"
           inkscape:connector-curvature="0"
           sodipodi:nodetypes="ccccc" />
        <path
           style="color:#000000;fill:#090f23;fill-opacity:1;stroke:none;stroke-width:0.5;marker:none;visibility:visible;display:inline;overflow:visible;enable-background:accumulate"
           d="m 309.50131,367.76903 -11.33859,18.89764 c 30.31456,-1.60531 96.00474,-8.61651 148.66143,19.31758 -20.816,-21.17787 -71.53727,-33.65717 -137.32284,-38.21522 z"
           id="path4012"
           inkscape:connector-curvature="0"
           sodipodi:nodetypes="cccc" />
        <path
           style="color:#000000;fill:#343a4e;fill-opacity:1;stroke:#000000;stroke-width:0.5;stroke-linecap:butt;stroke-linejoin:round;stroke-miterlimit:4;stroke-opacity:1;stroke-dasharray:none;stroke-dashoffset:4.09999996;marker:none;visibility:visible;display:inline;overflow:visible;enable-background:accumulate"
           d="m 478.74016,501.73228 c 1.16586,-6.7263 8.7103,-8.89647 17.63779,-10.07874 74.19073,4.86462 148.38145,13.9895 222.57218,20.99738 z"
           id="path4014"
           inkscape:connector-curvature="0"
           sodipodi:nodetypes="cccc" />
        <path
           style="color:#000000;fill:#b3b3b3;fill-opacity:1;fill-rule:nonzero;stroke:#000000;stroke-width:0.5;stroke-linecap:butt;stroke-linejoin:round;stroke-miterlimit:4;stroke-opacity:1;stroke-dasharray:none;stroke-dashoffset:4.09999996;marker:none;visibility:visible;display:inline;overflow:visible;enable-background:accumulate"
           d="m 755.90551,404.30446 22.14296,1.22999 c -0.98961,7.62801 -6.60104,11.29446 -15.4238,12.20833 l -8.81889,0 c 0.99028,-4.18907 2.17965,-8.17905 2.09973,-13.43832 z"
           id="path4016"
           inkscape:connector-curvature="0"
           sodipodi:nodetypes="ccccc" />
        <path
           style="color:#000000;fill:#000000;fill-opacity:1;fill-rule:nonzero;stroke:#000000;stroke-width:0.5;stroke-linecap:butt;stroke-linejoin:round;stroke-miterlimit:4;stroke-opacity:1;stroke-dasharray:none;stroke-dashoffset:4.09999996;marker:none;visibility:visible;display:inline;overflow:visible;enable-background:accumulate"
           d="m 478.77,501.31233 c -1.33422,2.79965 -1.71141,6.01925 3.32974,8.8189 l 235.72229,2.60587 z"
           id="path4018"
           inkscape:connector-curvature="0"
           sodipodi:nodetypes="cccc" />
        <path
           style="color:#000000;fill:#00ffff;fill-opacity:1;fill-rule:nonzero;stroke:#000000;stroke-width:0.5;stroke-linecap:butt;stroke-linejoin:round;stroke-miterlimit:4;stroke-opacity:1;stroke-dasharray:none;stroke-dashoffset:4.09999996;marker:none;visibility:visible;display:inline;overflow:visible;enable-background:accumulate"
           d="m 647.04957,209.59292 c 0.84332,-3.07847 11.32336,-3.5386 21.50686,-3.50368 37.68446,26.277 76.0216,57.55088 128.13855,111.24389 l -6.35377,3.82173 C 743.27454,280.48149 695.69539,242.37054 647.04957,209.59292 z"
           id="path4022"
           inkscape:connector-curvature="0"
           sodipodi:nodetypes="ccccc" />
        <path
           style="opacity:0.5;color:#000000;fill:#ffffff;fill-opacity:1;fill-rule:nonzero;stroke:none;stroke-width:2;marker:none;visibility:visible;display:inline;overflow:visible;filter:url(#filter4346);enable-background:accumulate"
           d="m 286.4042,436.22047 c 2.97958,-14.55818 8.09347,-49.27384 19.31759,-63.83202 l 39.47506,2.51969 c -29.59911,11.72993 -46.61374,27.93561 -58.79265,61.31233 z"
           id="path4208"
           inkscape:connector-curvature="0"
           transform="matrix(0.73509189,0,0,0.73509189,83.65812,125.10353)"
           sodipodi:nodetypes="cccc" />
        <path
           style="color:#000000;fill:url(#linearGradient4412);fill-opacity:1;fill-rule:nonzero;stroke:none;stroke-width:2;marker:none;visibility:visible;display:inline;overflow:visible;enable-background:accumulate"
           d="m 480.41995,367.98951 270.4462,32.7559 c -1.73795,24.83235 -4.57074,35.10229 -18.47768,56.47244 C 676.7939,450.62774 571.62566,442.477 524.93438,429.50131 512.0801,415.55423 481.37726,389.01939 480.41995,367.98951 z"
           id="path4350"
           inkscape:connector-curvature="0"
           transform="translate(0,18)"
           sodipodi:nodetypes="ccccc" />
        <path
           style="color:#000000;fill:#140a0a;fill-opacity:1;stroke:#000000;stroke-width:0.36754593;stroke-linecap:butt;stroke-linejoin:round;stroke-miterlimit:4;stroke-opacity:1;stroke-dasharray:none;stroke-dashoffset:4.09999996;marker:none;visibility:visible;display:inline;overflow:visible;enable-background:accumulate"
           d="m 449.55238,286.35381 c -2.98766,3.5182 -3.05786,14.35993 -0.92611,17.90458 1.08332,1.80133 4.97367,4.87673 7.1001,6.17401 2.69143,1.05984 18.1948,3.05733 28.4004,-2.4696 9.65828,-5.23052 8.56769,-15.25295 0,-19.7568 -9.46103,-4.97346 -26.98501,-6.91972 -29.6352,-6.17401 -1.6464,0.69824 -3.58974,2.73274 -4.93919,4.32182 z"
           id="path4000-1"
           inkscape:connector-curvature="0"
           sodipodi:nodetypes="sscsscs" />
        <path
           style="color:#000000;fill:#1a1a1a;fill-opacity:1;fill-rule:nonzero;stroke:none;stroke-width:2;marker:none;visibility:visible;display:inline;overflow:visible;enable-background:accumulate"
           d="m 446.82415,276.64042 c 14.13823,-3.05193 32.72091,0.7139 43.91951,4.07648 0.059,1.96448 -0.43444,3.85932 -1.53966,4.27153 -14.4182,-2.08162 -27.54171,-5.23663 -42.37985,-2.46874 z"
           id="path4432"
           inkscape:connector-curvature="0"
           transform="translate(0,18)"
           sodipodi:nodetypes="ccccc" />
      </g>
      <g
         id="SpinningWheel"
         transform="matrix(0.525,0,0,0.525,296.20522,12.444465)">
        <animateTransform
           values="0 0;-1 -2;0 2;0 0"
           id="animateTransform4056"
           attributeName="transform"
           additive="sum"
           begin="0ms"
           dur="250ms"
           type="translate"
           repeatCount="indefinite"
           fillH="freeze" />
        <path
           style="fill-rule:evenodd;stroke:none;filter:url(#e)"
           inkscape:connector-curvature="0"
           id="path3932"
           d="m 577,324.73068 c 0,19.7004 -3.93013,39.39306 -11.49419,57.59386 -7.56407,18.2008 -18.75612,34.89542 -32.73269,48.8257 -13.97657,13.93028 -30.72666,25.08526 -48.98792,32.62427 -18.26127,7.539 -38.01935,11.45611 -57.7852,11.45611 -19.76585,0 -39.52393,-3.91711 -57.7852,-11.45611 -18.26126,-7.53901 -35.01135,-18.69399 -48.98792,-32.62427 -13.97657,-13.93028 -25.16862,-30.6249 -32.73269,-48.8257 C 278.93013,364.12374 275,344.43108 275,324.73068 c 0,-19.7004 3.93013,-39.39306 11.49419,-57.59386 7.56407,-18.20079 18.75612,-34.89542 32.73269,-48.8257 13.97657,-13.93028 30.72666,-25.08526 48.98792,-32.62426 18.26127,-7.53901 38.01935,-11.45611 57.7852,-11.45611 19.76585,0 39.52393,3.9171 57.7852,11.45611 18.26126,7.539 35.01135,18.69398 48.98792,32.62426 13.97657,13.93028 25.16862,30.62491 32.73269,48.8257 C 573.06987,285.33762 577,305.03028 577,324.73068 z"
           transform="matrix(0.40891692,0,0,0.37383098,-18.693326,789.77044)"
           sodipodi:nodetypes="sssssssssssssssss" />
        <g
           id="Spokes">
          <animateTransform
             fillH="freeze"
             repeatCount="indefinite"
             type="rotate"
             dur="250ms"
             begin="0ms"
             additive="sum"
             attributeName="transform"
             id="animateTransform4010"
             values="0 152 909;180 152 909" />
          <path
             style="fill:#969696;fill-opacity:1;fill-rule:evenodd"
             inkscape:connector-curvature="0"
             d="m 151.62,830.14 c -31.44,0 -58.584,18.378 -71.297,44.969 7.971,-13.164 20.531,-29.603 37.281,-35.172 l 17.328,48.438 c 0.0469,0.65202 0.0731,1.2939 0.0469,1.8906 3.708,-3.1748 8.365,-5.2821 13.484,-5.8281 -0.76682,-0.4634 -1.4867,-1.2352 -2.2031,-2.0625 l -22,-46.5 c 7.3978,-3.7064 15.836,-5.08 24.25,-5.1094 9.5359,-0.0333 19.045,1.6587 26.984,3.6094 l -22.312,48 c -0.6265,0.91798 -1.2112,1.5242 -1.7656,1.9219 5.9691,0.07 11.423,2.2552 15.672,5.8281 -0.2824,-0.90707 -0.24138,-2.0492 -0.15625,-3.2344 l 17.328,-48.438 c 16.751,5.5685 29.31,21.992 37.281,35.156 l -49.719,18.172 c -1.2271,0.23159 -2.1536,0.24109 -2.8594,0.0781 4.328,4.4704 7,10.552 7,17.266 0,13.189 -10.281,23.984 -23.266,24.797 0.76205,0.29535 1.5797,1.0181 2.4844,2.3438 l 22.125,47.578 c 3.5689,-1.2264 7.0266,-2.6879 10.344,-4.3906 l -18.094,-49.484 c -0.77387,-4.1004 0.93838,-4.9093 3.2344,-4.9531 0.52984,-0.0101 1.1035,0.0217 1.6719,0.0625 l 48.438,17.328 c -0.37692,1.1338 -0.8091,2.2485 -1.2812,3.3438 5.7375,-10.946 9,-23.409 9,-36.625 0,-6.4808 -0.79353,-12.77 -2.2656,-18.797 2.7258,13.963 3.7373,30.881 -3.0156,44.359 l -46.5,-22 c -2.2975,-1.9896 -4.242,-4.0268 0,-6.9219 l 47.578,-22.109 c -10.598,-31.125 -40.086,-53.516 -74.797,-53.516 z m -71.297,44.969 c -4.927,10.305 -7.6875,21.831 -7.6875,34.016 0,25.774 12.354,48.66 31.453,63.078 -9.5079,-7.425 -18.469,-16.953 -22.297,-28.469 l 48.438,-17.328 c 1.1576,-0.0831 2.2905,-0.12059 3.1875,0.14062 -3.5441,-3.6041 -6.0029,-8.278 -6.8281,-13.5 -0.45372,0.55913 -1.037,1.1044 -1.6562,1.6406 l -46.5,22 c -7.907,-15.782 -5.1719,-36.29 -1.5,-51.234 l 48,22.312 c 0.56083,0.38274 1.0013,0.75471 1.3594,1.1094 0.0585,-5.8475 2.1433,-11.207 5.5781,-15.422 -0.52575,0.005 -1.1185,-0.0536 -1.8281,-0.1875 l -49.719,-18.156 z m 54.781,53 c 0.25668,0.73759 0.28636,1.7686 0.0156,3.2031 l -17.875,48.938 c 10.396,5.0356 22.048,7.875 34.375,7.875 6.8163,0 13.44,-0.86099 19.75,-2.4844 -14.102,2.8347 -31.391,3.9982 -45.109,-2.875 l 22,-46.5 c 0.85514,-0.98748 1.7189,-1.903 2.6562,-2.2969 -6.0257,-0.0484 -11.536,-2.2463 -15.812,-5.8594 z m 71.844,37.391 c -4.9888,4.6312 -10.459,8.6155 -15.641,11.953 5.7116,-3.3242 10.955,-7.3536 15.641,-11.953 z"
             id="path3934" />
        </g>
        <path
           style="fill:none;stroke:#3b3b3b;stroke-width:12.20100021;stroke-linecap:round;stroke-linejoin:round"
           inkscape:connector-curvature="0"
           id="path3936"
           d="m 447,423.36 a 40,36 0 1 1 -80,0 40,36 0 1 1 80,0 z"
           transform="matrix(0.56193,0,0,0.61048,-76.949,650.92)" />
        <path
           style="fill:none;stroke:#0c051f;stroke-width:3.90159988;stroke-linecap:round;stroke-linejoin:round"
           inkscape:connector-curvature="0"
           id="path3938"
           d="m 576,422.86 a 174,160.5 0 1 1 -348,0 174,160.5 0 1 1 348,0 z"
           transform="matrix(0.44949,0,0,0.4873,-28.69,701.56)" />
        <path
           style="fill:#333333;fill-rule:evenodd"
           inkscape:connector-curvature="0"
           id="path3940"
           d="m 152.51,818.81 c 51.452,0 93.162,39.205 93.162,87.568 0,48.363 -41.71,87.568 -93.162,87.568 -51.452,0 -93.162,-39.205 -93.162,-87.568 0,-48.363 41.71,-87.568 93.162,-87.568 z m 0,14.595 c -42.877,0 -77.649,32.671 -77.649,72.973 0,40.302 34.772,72.973 77.649,72.973 42.877,0 77.649,-32.671 77.649,-72.973 0,-40.302 -34.772,-72.973 -77.649,-72.973 z" />
        <path
           style="fill:url(#radialGradient4166);fill-rule:evenodd"
           inkscape:connector-curvature="0"
           id="path3942"
           d="m 152.51,816.38 c 52.881,0 95.75,40.294 95.75,90 0,49.706 -42.869,90 -95.75,90 -52.881,0 -95.75,-40.294 -95.75,-90 0,-49.706 42.869,-90 95.75,-90 z m 0,15 c -44.068,0 -79.806,33.579 -79.806,75 0,41.421 35.738,75 79.806,75 44.068,0 79.806,-33.579 79.806,-75 0,-41.421 -35.738,-75 -79.806,-75 z" />
        <path
           style="fill:url(#linearGradient4168);fill-rule:evenodd"
           inkscape:connector-curvature="0"
           id="path3944"
           d="m 152.51,816.38 c 52.881,0 95.75,40.294 95.75,90 0,49.706 -42.869,90 -95.75,90 -52.881,0 -95.75,-40.294 -95.75,-90 0,-49.706 42.869,-90 95.75,-90 z m 0,15 c -44.068,0 -79.806,33.579 -79.806,75 0,41.421 39.273,73.586 83.341,73.586 44.068,0 76.27,-32.164 76.27,-73.586 0,-41.422 -35.738,-75 -79.806,-75 z" />
        <path
           style="fill-rule:evenodd"
           inkscape:connector-curvature="0"
           id="path3946"
           d="m 152.51,771.26 c 79.391,0 143.75,60.494 143.75,135.12 0,74.626 -64.359,135.12 -143.75,135.12 -79.391,0 -143.75,-60.494 -143.75,-135.12 0,-74.626 64.359,-135.12 143.75,-135.12 z m 0,22.52 c -66.159,0 -119.81,50.412 -119.81,112.6 0,62.188 53.653,112.6 119.81,112.6 66.157,0 119.81,-50.412 119.81,-112.6 0,-62.188 -53.653,-112.6 -119.81,-112.6 z" />
        <path
           style="fill-rule:evenodd"
           inkscape:connector-curvature="0"
           id="path3948"
           d="m 152.51,792.88 c 66.688,0 120.75,50.815 120.75,113.5 0,62.685 -54.062,113.5 -120.75,113.5 -66.688,0 -120.75,-50.815 -120.75,-113.5 0,-62.685 54.062,-113.5 120.75,-113.5 z m 0,18.916 c -55.574,0 -100.64,42.346 -100.64,94.582 0,52.236 45.069,94.582 100.64,94.582 55.571,0 100.64,-42.346 100.64,-94.582 0,-52.236 -45.069,-94.582 -100.64,-94.582 z" />
        <path
           style="fill-rule:evenodd;filter:url(#f)"
           inkscape:connector-curvature="0"
           id="path3950"
           d="m 152.51,805.1 c 59.509,0 107.75,45.344 107.75,101.28 0,55.936 -48.241,101.28 -107.75,101.28 -59.509,0 -107.75,-45.344 -107.75,-101.28 0,-55.936 48.241,-101.28 107.75,-101.28 z m 0,16.88 c -49.591,0 -89.807,37.787 -89.807,84.399 0,46.612 40.217,84.399 89.807,84.399 49.59,0 89.807,-37.787 89.807,-84.399 0,-46.612 -40.217,-84.399 -89.807,-84.399 z" />
        <path
           style="fill:none;stroke:#e2e6ee;stroke-width:8.71380043;stroke-linecap:round;stroke-linejoin:round;filter:url(#h)"
           inkscape:connector-curvature="0"
           id="path3952"
           d="m 2500,346.36 a 624,602 0 1 1 -1248,0 624,602 0 1 1 1248,0 z"
           transform="matrix(0.20253,0,0,0.19665,-223.94,837.51)" />
        <path
           style="fill:none;stroke:#362348;stroke-width:3.47799993;stroke-linecap:round;stroke-linejoin:round"
           inkscape:connector-curvature="0"
           id="path3954"
           d="m 433.46,423.74 a 25.8095,22.627438 0 1 1 -51.619,0 25.8095,22.627438 0 1 1 51.619,0 z"
           transform="matrix(0.49786,0,0,0.56787,-50.872,668.83)" />
        <path
           style="fill:none;stroke:#7a787b;stroke-width:4.85629988;stroke-linecap:round;stroke-linejoin:round;filter:url(#g)"
           inkscape:connector-curvature="0"
           id="path3956"
           d="m 433.46,423.74 a 25.8095,22.627438 0 1 1 -51.619,0 25.8095,22.627438 0 1 1 51.619,0 z"
           transform="matrix(0.4075,0,0,0.46481,-14.036,712.51)" />
        <path
           style="fill:none;stroke:#9589a1;stroke-width:4.85629988;stroke-linecap:round;stroke-linejoin:round"
           inkscape:connector-curvature="0"
           id="path3958"
           d="m 433.46,423.74 a 25.8095,22.627438 0 1 1 -51.619,0 25.8095,22.627438 0 1 1 51.619,0 z"
           transform="matrix(0.15985,0,0,0.18233,86.919,832.21)" />
        <path
           style="fill:#7a7a7a;fill-opacity:1;fill-rule:evenodd"
           inkscape:connector-curvature="0"
           id="path3960"
           d="m 152.51,816.38 c 52.881,0 95.75,40.294 95.75,90 0,49.706 -42.869,90 -95.75,90 -52.881,0 -95.75,-40.294 -95.75,-90 0,-49.706 42.869,-90 95.75,-90 z m 0,15 c -44.068,0 -79.806,33.579 -79.806,75 0,41.421 39.273,73.586 83.341,73.586 44.068,0 76.27,-32.164 76.27,-73.586 0,-41.422 -35.738,-75 -79.806,-75 z" />
      </g>
      <use
         height="600"
         width="1200"
         transform="translate(455.99978,6)"
         id="use3212"
         xlink:href="#SpinningWheel"
         y="0"
         x="0" />
    </g>
  </g>
</svg>
